<svg xmlns="http://www.w3.org/2000/svg" width="121.96" height="118.582" viewBox="0 0 121.96 118.582">
  <g id="Group_10" data-name="Group 10" transform="translate(-179.034 -46.626)">
    <g id="Group_9" data-name="Group 9">
      <g id="Group_8" data-name="Group 8">
        <g id="Group_7" data-name="Group 7">
          <g id="Group_6" data-name="Group 6">
            <g id="Group_5" data-name="Group 5">
              <g id="Group_4" data-name="Group 4">
                <ellipse id="Ellipse_14" data-name="Ellipse 14" cx="48.48" cy="49.078" rx="48.48" ry="49.078" transform="translate(189.04 46.626)"/>
                <path id="Path_7" data-name="Path 7" d="M0,84" transform="translate(192.042 30.398)" fill="none" stroke="#707070" stroke-width="7"/>
                <g id="Path_8" data-name="Path 8" transform="translate(2294.021 147.898)" fill="none">
                  <path d="M-2098.139-4.028c-23.958-11.109,20.959-87.088,43.2-87.088s45.768,87.088,45.768,87.088,16.047-19.529-3.88-4-35.817-36.948-35.817-36.948l-8.378,14.8-11.879-23.592S-2074.181,7.081-2098.139-4.028Z" stroke="none"/>
                  <path d="M -2092.51513671875 -2.673141479492188 C -2073.371826171875 -2.673141479492188 -2069.123779296875 -53.76675796508789 -2069.123779296875 -53.76675796508789 L -2057.2451171875 -30.17478370666504 L -2048.86669921875 -44.97804641723633 C -2048.86669921875 -44.97804641723633 -2036.80908203125 -5.154928207397461 -2020.527221679688 -5.157835960388184 C -2018.119140625 -5.158266067504883 -2015.616821289062 -6.029886245727539 -2013.04931640625 -8.030387878417969 C -2012.24169921875 -8.659631729125977 -2011.492797851562 -9.231600761413574 -2010.799926757812 -9.749324798583984 C -2016.4951171875 -29.133544921875 -2036.173095703125 -91.11594390869141 -2054.937255859375 -91.11594390869141 C -2077.1796875 -91.11594390869141 -2122.096435546875 -15.13709831237793 -2098.138671875 -4.028151035308838 C -2096.1337890625 -3.098565578460693 -2094.263427734375 -2.673141479492188 -2092.51513671875 -2.673141479492188 M -2009.16943359375 -4.028151035308838 C -2009.16943359375 -4.028151035308838 -1994.397705078125 -22.00528717041016 -2010.799926757812 -9.749324798583984 C -2009.744262695312 -6.15632963180542 -2009.16943359375 -4.028151035308838 -2009.16943359375 -4.028151035308838 M -2013.758666992188 17.30992698669434 L -2017.2041015625 4.568253040313721 C -2018.298583984375 4.750471591949463 -2019.40625 4.841968059539795 -2020.525512695312 4.842164516448975 C -2034.067993164062 4.844578742980957 -2044.044921875 -8.774035453796387 -2050.489501953125 -21.80875205993652 L -2057.760498046875 -8.962177276611328 L -2064.675537109375 -22.69573020935059 C -2069.336181640625 -7.358371734619141 -2077.67529296875 7.326848983764648 -2092.51513671875 7.326848983764648 C -2095.771240234375 7.326848983764648 -2099.078369140625 6.558795928955078 -2102.34521484375 5.044006824493408 C -2108.687255859375 2.103296041488647 -2118.58984375 -6.171361923217773 -2113.654052734375 -28.5489673614502 C -2107.4794921875 -56.54301834106445 -2078.1015625 -101.1159439086914 -2054.937255859375 -101.1159439086914 C -2048.39013671875 -101.1159439086914 -2029.068115234375 -101.1182403564453 -2004.680297851562 -23.9757080078125 C -2004.31396484375 -24.01043510437012 -2003.948120117188 -24.02699279785156 -2003.579467773438 -24.02699279785156 L -1997.2451171875 -24.02699279785156 L -1994.074096679688 -18.06125640869141 C -1991.195556640625 -11.97083568572998 -1994.443115234375 -6.199467182159424 -2001.44287109375 2.320059299468994 L -2013.758666992188 17.30992698669434 Z" stroke="none" fill="#fefefe"/>
                </g>
                <path id="Path_9" data-name="Path 9" d="M-4.912-.351l34.27-.644V5.752l-31.693.493Z" transform="translate(240.912 90.537)" fill="#fff"/>
                <g id="Group_3" data-name="Group 3">
                  <ellipse id="Ellipse_16" data-name="Ellipse 16" cx="48.48" cy="49.078" rx="48.48" ry="49.078" transform="translate(189.04 46.626)"/>
                </g>
                <path id="Path_10" data-name="Path 10" d="M0,84" transform="translate(192.042 30.398)" fill="none" stroke="#707070" stroke-width="7"/>
                <g id="Path_11" data-name="Path 11" transform="translate(2294.021 147.898)" fill="none">
                  <path d="M-2098.139-4.028c-23.958-11.109,20.959-87.088,43.2-87.088s45.768,87.088,45.768,87.088,16.047-19.529-3.88-4-35.817-36.948-35.817-36.948l-8.378,14.8-11.879-23.592S-2074.181,7.081-2098.139-4.028Z" stroke="none"/>
                  <path d="M -2092.51513671875 -2.673141479492188 C -2073.371826171875 -2.673141479492188 -2069.123779296875 -53.76675796508789 -2069.123779296875 -53.76675796508789 L -2057.2451171875 -30.17478370666504 L -2048.86669921875 -44.97804641723633 C -2048.86669921875 -44.97804641723633 -2036.80908203125 -5.154928207397461 -2020.527221679688 -5.157835960388184 C -2018.119140625 -5.158266067504883 -2015.616821289062 -6.029886245727539 -2013.04931640625 -8.030387878417969 C -2012.24169921875 -8.659631729125977 -2011.492797851562 -9.231600761413574 -2010.799926757812 -9.749324798583984 C -2016.4951171875 -29.133544921875 -2036.173095703125 -91.11594390869141 -2054.937255859375 -91.11594390869141 C -2077.1796875 -91.11594390869141 -2122.096435546875 -15.13709831237793 -2098.138671875 -4.028151035308838 C -2096.1337890625 -3.098565578460693 -2094.263427734375 -2.673141479492188 -2092.51513671875 -2.673141479492188 M -2009.16943359375 -4.028151035308838 C -2009.16943359375 -4.028151035308838 -1994.397705078125 -22.00528717041016 -2010.799926757812 -9.749324798583984 C -2009.744262695312 -6.15632963180542 -2009.16943359375 -4.028151035308838 -2009.16943359375 -4.028151035308838 M -2013.758666992188 17.30992698669434 L -2017.2041015625 4.568253040313721 C -2018.298583984375 4.750471591949463 -2019.40625 4.841968059539795 -2020.525512695312 4.842164516448975 C -2034.067993164062 4.844578742980957 -2044.044921875 -8.774035453796387 -2050.489501953125 -21.80875205993652 L -2057.760498046875 -8.962177276611328 L -2064.675537109375 -22.69573020935059 C -2069.336181640625 -7.358371734619141 -2077.67529296875 7.326848983764648 -2092.51513671875 7.326848983764648 C -2095.771240234375 7.326848983764648 -2099.078369140625 6.558795928955078 -2102.34521484375 5.044006824493408 C -2108.687255859375 2.103296041488647 -2118.58984375 -6.171361923217773 -2113.654052734375 -28.5489673614502 C -2107.4794921875 -56.54301834106445 -2078.1015625 -101.1159439086914 -2054.937255859375 -101.1159439086914 C -2048.39013671875 -101.1159439086914 -2029.068115234375 -101.1182403564453 -2004.680297851562 -23.9757080078125 C -2004.31396484375 -24.01043510437012 -2003.948120117188 -24.02699279785156 -2003.579467773438 -24.02699279785156 L -1997.2451171875 -24.02699279785156 L -1994.074096679688 -18.06125640869141 C -1991.195556640625 -11.97083568572998 -1994.443115234375 -6.199467182159424 -2001.44287109375 2.320059299468994 L -2013.758666992188 17.30992698669434 Z" stroke="none" fill="#fefefe"/>
                </g>
                <path id="Path_12" data-name="Path 12" d="M-4.912-.351l34.27-.644V5.752l-31.693.493Z" transform="translate(240.912 90.537)" fill="#fff"/>
              </g>
            </g>
          </g>
        </g>
      </g>
    </g>
  </g>
</svg>
